# xmcd
#
# Track frame offsets: 
#        150
#        23232
#        43612
#        60190
#        80407
#        99785
#        118065
#        136347
#        162415
#        167867
#        184135
#        210802
#        230577
#        243527
#        266332
#        272642
#        289937
#        322830
#
# Disc length: 4795 seconds
#
# Revision: 2
# Processed by: cddbd v1.5.2PL0 Copyright (c) Steve Scherf et al.
# Submitted via: ExactAudioCopyFreeDBPlugin 1.0
#
DISCID=ef12b912
DTITLE=Do As Infinity - Do As Infinity LIVE IN JAPAN [Disc 2]
DYEAR=2004
DGENRE=Rock
TTITLE0=MC
TTITLE1=Week！
TTITLE2=遠くまで
TTITLE3=冒険者たち
TTITLE4=135
TTITLE5=MC
TTITLE6=One or Eight
TTITLE7=Thanksgiving Day
TTITLE8=MC
TTITLE9=Rock And Roll All Nite
TTITLE10=MC
TTITLE11=Tangerine Dream
TTITLE12=MC
TTITLE13=Field of Dreams
TTITLE14=MC
TTITLE15=SUMMER DAYS
TTITLE16=あいのうた
TTITLE17=データ
EXTD=YEAR: 2004 ID3G:   0
EXTT0=
EXTT1=
EXTT2=
EXTT3=
EXTT4=
EXTT5=
EXTT6=
EXTT7=
EXTT8=
EXTT9=
EXTT10=
EXTT11=
EXTT12=
EXTT13=
EXTT14=
EXTT15=
EXTT16=
EXTT17=
PLAYORDER=
